<svg xmlns="http://www.w3.org/2000/svg" xmlns:xlink="http://www.w3.org/1999/xlink" id="Layer_1" x="0px" y="0px" viewBox="0 0 1200 300" style="enable-background:new 0 0 1200 300;" xml:space="preserve"><style type="text/css">	.st0{fill:#E0E0E0;}	.st1{fill:#EBEBEB;}	.st2{fill:#F5F5F5;}	.st3{fill:#64B46E;}	.st4{fill:#9CDBA2;}	.st5{fill:#B4CCC6;}	.st6{fill:#467F4C;}	.st7{fill:#FFFFFF;}	.st8{fill:#3B4F66;}	.st9{fill:#2A8CB7;}	.st10{fill:#2D99D5;}	.st11{fill:#2D374D;}	.st12{fill:#6C8CA6;}	.st13{fill:#8FA7B8;}	.st14{fill:#536982;}	.st15{fill:url(#SVGID_1_);}	.st16{fill:url(#SVGID_00000026873577615804133310000018211213293460919454_);}	.st17{fill:url(#SVGID_00000002345484700478535590000005584425816443764901_);}	.st18{fill:url(#SVGID_00000118359713561688282090000009576449496166142863_);}	.st19{fill:url(#SVGID_00000033367902668207238340000009640981974773705877_);}	.st20{fill:url(#SVGID_00000042699421327918661070000004174366434025551291_);}	.st21{fill:url(#SVGID_00000166642528883519690140000007107594525664121734_);}	.st22{fill:url(#SVGID_00000066500088269978594280000002912517302610495621_);}</style><path class="st0" d="M-1757.2,2273.5v-88.1h-41.1h-13.6h-38.2v88.1h-22v670h134v-670H-1757.2L-1757.2,2273.5z M-1847.6,2855.5h-13.6  v-55h13.6V2855.5z M-1847.6,2773.4h-13.6v-55h13.6V2773.4z M-1847.6,2690.9h-13.6v-55h13.6V2690.9z M-1847.6,2608.8h-13.6v-55h13.6  V2608.8z M-1847.6,2526.2h-13.6v-55h13.6V2526.2z M-1847.6,2443.6h-13.6v-55h13.6V2443.6z M-1847.6,2361.5h-13.6v-55h13.6V2361.5z   M-1822.9,2855.5h-13.7v-55h13.7V2855.5z M-1822.9,2773.4h-13.7v-55h13.7V2773.4z M-1822.9,2608.8h-13.7v-55h13.7V2608.8z   M-1822.9,2443.6h-13.7v-55h13.7V2443.6z M-1822.9,2361.5h-13.7v-55h13.7V2361.5z M-1822.9,2268h-13.7v-55h13.7V2268z   M-1798.3,2855.5h-13.6v-55h13.6V2855.5z M-1798.3,2690.9h-13.6v-55h13.6V2690.9z M-1798.3,2608.8h-13.6v-55h13.6V2608.8z   M-1798.3,2526.2h-13.6v-55h13.6V2526.2z M-1798.3,2443.6h-13.6v-55h13.6V2443.6z M-1798.3,2361.5h-13.6v-55h13.6V2361.5z   M-1798.3,2257v11h-13.6v-11v-44h13.6V2257z M-1773.7,2855.5h-13.7v-55h13.7V2855.5z M-1773.7,2773.4h-13.7v-55h13.7V2773.4z   M-1773.7,2690.9h-13.7v-55h13.7V2690.9z M-1773.7,2608.8h-13.7v-55h13.7V2608.8z M-1773.7,2526.2h-13.7v-55h13.7V2526.2z   M-1773.7,2361.5h-13.7v-55h13.7V2361.5z M-1773.7,2268h-13.7v-55h13.7V2268z M-1749.2,2855.5h-13.7v-55h13.7V2855.5z   M-1749.2,2773.4h-13.7v-55h13.7V2773.4z M-1749.2,2690.9h-13.7v-55h13.7V2690.9z M-1749.2,2608.8h-13.7v-55h13.7V2608.8z   M-1749.2,2526.2h-13.7v-55h13.7V2526.2z M-1749.2,2443.6h-13.7v-55h13.7V2443.6z M-1749.2,2361.5h-13.7v-55h13.7V2361.5z"></path><path class="st1" d="M-1961.8,2132.8v-22.5l-91.4-23.3v45.8h-16.2v815.7h160.1v-815.7H-1961.8z M-2030.1,2844.9h-22.7v-40.2h22.7  V2844.9z M-2030.1,2787.5h-22.7v-40.2h22.7V2787.5z M-2030.1,2672.8h-22.7v-40.2h22.7V2672.8z M-2030.1,2615.3h-22.7v-40.2h22.7  V2615.3z M-2030.1,2557.9h-22.7v-40.2h22.7V2557.9z M-2030.1,2500.1h-22.7v-40.2h22.7V2500.1z M-2030.1,2385.4h-22.7v-40.2h22.7  V2385.4z M-2030.1,2327.9h-22.7v-40.2h22.7V2327.9z M-2030.1,2270.5h-22.7v-40.2h22.7V2270.5z M-1997.4,2787.5h-19.4v-40.2h19.4  V2787.5z M-1997.4,2730.1h-19.4V2690h19.4V2730.1z M-1997.4,2672.8h-19.4v-40.2h19.4V2672.8z M-1997.4,2615.3h-19.4v-40.2h19.4  V2615.3z M-1997.4,2500.1h-19.4v-40.2h19.4V2500.1z M-1997.4,2442.7h-19.4v-40.2h19.4V2442.7z M-1997.4,2385.4h-19.4v-40.2h19.4  V2385.4z M-1997.4,2270.5h-19.4v-40.2h19.4V2270.5z M-1961.8,2844.9h-19.5v-40.2h19.5V2844.9z M-1961.8,2787.5h-19.5v-40.2h19.5  V2787.5z M-1961.8,2730.1h-19.5V2690h19.5V2730.1z M-1961.8,2672.8h-19.5v-40.2h19.5V2672.8z M-1961.8,2557.9h-19.5v-40.2h19.5  V2557.9z M-1961.8,2500.1h-19.5v-40.2h19.5V2500.1z M-1961.8,2442.7h-19.5v-40.2h19.5V2442.7z M-1961.8,2385.4h-19.5v-40.2h19.5  V2385.4z M-1961.8,2327.9h-19.5v-40.2h19.5V2327.9z M-1961.8,2270.5h-19.5v-40.2h19.5V2270.5z M-1929.2,2844.9h-19.4v-40.2h19.4  V2844.9z M-1929.2,2730.1h-19.4V2690h19.4V2730.1z M-1929.2,2672.8h-19.4v-40.2h19.4V2672.8z M-1929.2,2615.3h-19.4v-40.2h19.4  V2615.3z M-1929.2,2557.9h-19.4v-40.2h19.4V2557.9z M-1929.2,2500.1h-19.4v-40.2h19.4V2500.1z M-1929.2,2442.7h-19.4v-40.2h19.4  V2442.7z M-1929.2,2385.4h-19.4v-40.2h19.4V2385.4z M-1929.2,2270.5h-19.4v-40.2h19.4V2270.5z"></path><path class="st2" d="M-3057.5,2330.4l158,7l-0.9-9.2c0,0-13.1,0.1-15.1-1.6c-1.9-1.8-11-18.1-13.7-17c-2.7,1-131.5,14.4-131.5,14.4  L-3057.5,2330.4z"></path><path class="st2" d="M-2876,2326.8c-3.7-7.7-12.6-10.7-19.6-6.5c-7.1,4.1-9.8,13.6-5.9,21.3c3.7,7.7,12.6,10.7,19.6,6.5  C-2874.8,2344-2872.1,2334.5-2876,2326.8z"></path><path class="st2" d="M-2888,2346.7l6.7,13.6c0,0-5.9,22.4-5.5,23.6c0.6,1.2,73.3,115.3,73.3,115.3l6.8-3.9l-74.6-152.4L-2888,2346.7  z"></path><path class="st2" d="M-2887.4,2322.8l8,3.1l8-14.4l22.7-3.4l51.9-130.3l-4.9-3.4L-2887.4,2322.8z"></path><path class="st2" d="M-2883.9,2333.2l3.7,318.5h-29.1l8.5-311.7L-2883.9,2333.2z"></path><path class="st0" d="M-2436.9,2345.9l-184.3-117.2l-4.3,11.6c0,0,15.7,8.8,17.1,12.3c1.3,3.4,2.5,29,6.4,29.8  c3.9,0.7,165.2,73.5,165.2,73.5V2345.9L-2436.9,2345.9z"></path><path class="st0" d="M-2655.3,2225.3c0,11.7,8.8,21.3,19.6,21.3s19.6-9.5,19.6-21.3c0-11.7-8.8-21.3-19.6-21.3  S-2655.3,2213.4-2655.3,2225.3z"></path><path class="st0" d="M-2629.4,2210v-20.8c0,0,20.2-22.5,20.2-24.3c0-1.8-20.2-187.9-20.2-187.9h-10.4v233H-2629.4z"></path><path class="st0" d="M-2644,2237.9l-7.7-9.2l-18,11.6l-28.9-11.6l-138,119.5l3.9,7.6L-2644,2237.9z"></path><path class="st0" d="M-2621.2,2228.7l5,430h-39.2l11.3-420.8L-2621.2,2228.7z"></path><path class="st2" d="M-2754.9,2033.2h-269.8c0,0,23.9-47.1,93.3-40.3c66.3,6.5,69.7-23.3,103.4-26.8  C-2794.2,1962.3-2766,1990.5-2754.9,2033.2z"></path><path class="st1" d="M-2969,2143.9h-223.3c0,0,19.7-39,77.2-33.4c54.9,5.5,57.7-19.3,85.6-22.2  C-3001.7,2085.2-2978.4,2108.5-2969,2143.9z"></path><path class="st1" d="M-1927.7,2033.2h-308.8c0,0,27.3-53.9,106.9-46.1c76,7.6,79.8-26.5,118.4-30.8  C-1972.8,1952.1-1940.6,1984.3-1927.7,2033.2z"></path><path class="st1" d="M-3269.5,2961.1l1478.1-2.8l69.5-0.1l21.3-115.5c0,0-62.9,2.5-94-3.3c-61.4-11.4-121.7-38.7-179.1-69.1  c-86.8-45.7-172.3-99.3-265.1-118.7c-136.2-28.5-279.1,18.8-412.4-26.8c-110.7-37.9-214.3-139-327.5-114.4  c-105.4,22.8-184.2,150.9-290.7,161.3"></path><path class="st0" d="M-2331.7,2675.3h-21.2l5.5-137.1h21.2L-2331.7,2675.3z"></path><path class="st3" d="M-2342.6,2197.1c0,1.9-57.1,118.3-57.1,118.3l28.5-18.8l-41,81.5l27.2-24.5l-32.1,102.1l15.4-10.7l-27.2,72  l23.3-18.8l-23.3,53.8l183.9-8.8l-43.5-101.4l26.3,18.8l-34-74l17.4,6.2l-39.6-95.2l18.4,8.2L-2342.6,2197.1z"></path><path class="st2" d="M-2157.3,2672.9h-17.2l4.5-110.9h17.2L-2157.3,2672.9z"></path><path class="st4" d="M-2166.2,2286.1c0,1.5-46.2,95.8-46.2,95.8l23.2-15.3l-33.2,65.8l22-19.7l-25.8,82.6l12.5-8.6l-22,58.3  l18.8-15.3l-18.8,43.6l148.8-7.1l-35.2-82.1l21.2,15.3l-27.6-59.7l14.1,5l-32.1-77.1l14.8,6.5L-2166.2,2286.1z"></path><path class="st5" d="M-2480.5,2379.1c0,1.5-46.2,95.8-46.2,95.8l23.2-15.3l-33.2,65.8l22-19.7l-25.8,82.6l12.5-8.6l-22,58.2  l18.8-15.3l-18.8,43.6l148.8-7.1l-35.2-82.1l21.2,15.3l-27.6-59.7l14.1,5l-32.1-77.1l14.8,6.5L-2480.5,2379.1z"></path><path class="st3" d="M-3054.4,2388.5h-140.8v593.3h140.8V2388.5z"></path><path class="st6" d="M-3290.8,2303.2h46l49.6,85.2v593.3h-95.6V2303.2z"></path><path class="st7" d="M-3075.2,2424.2h-99.4v198.6h99.4V2424.2z"></path><path class="st5" d="M-3084.5,2436.2h-80.6v70.2h80.6V2436.2z"></path><path class="st4" d="M-3054.4,2388.5h-140.8l-49.6-85.2h140.8L-3054.4,2388.5z"></path><path class="st8" d="M-3124.9,2608.1c-13.8,0-24.9-11.1-24.9-24.9c0-13.8,11.1-24.9,24.9-24.9c13.8,0,24.9,11.1,24.9,24.9  C-3099.9,2597-3111.1,2608.1-3124.9,2608.1z M-3124.9,2562.5c-11.4,0-20.8,9.3-20.8,20.8c0,11.4,9.3,20.7,20.8,20.7  c11.4,0,20.8-9.3,20.8-20.7C-3104.1,2571.8-3113.4,2562.5-3124.9,2562.5z"></path><path class="st5" d="M-3124.9,2536.5c9.2,0,16.6,7.4,16.6,16.6v30.2c0,9.2-7.4,16.6-16.6,16.6c-9.2,0-16.6-7.4-16.6-16.6v-30.2  C-3141.3,2544-3133.9,2536.5-3124.9,2536.5z"></path><path class="st7" d="M-3054.4,2385.8h-140.8v5.2h140.8V2385.8z"></path><path class="st9" d="M-2778.6,2656.9l73.8,6.1c6.1,0.4,11.4-4.3,11.4-10.5v-11.4c0-3.6-1.8-6.8-4.7-8.8l-28-18.5  c-1.8-1.2-3.7-1.8-5.8-1.8h-45.7c-5.8,0-10.5,4.7-10.5,10.5v23.9C-2788.3,2651.9-2784.1,2656.5-2778.6,2656.9z"></path><path class="st10" d="M-2788.3,2622.7v8.8c0,5.5,4.2,10.1,9.6,10.5l73.8,6.1c5.5,0.4,10.4-3.4,11.3-8.8c-0.4-2.8-2.1-5.5-4.6-7  l-28-18.5c-1.8-1.2-3.7-1.8-5.8-1.8h-45.7C-2783.7,2612.1-2788.3,2616.9-2788.3,2622.7z"></path><path class="st9" d="M-2265.8,2495c1-13.2,83.7-17.1,184.6-8.8c100.9,8.3,183.3,24.3,180.8,38.8c-2.7,15.6-14.8,31.6-88,26.2  C-2089.3,2544.3-2267,2508.2-2265.8,2495z"></path><path class="st11" d="M-2806.1,2790.6c-31.8,0-57.4,42.8-57.4,95.6c0,52.8,25.7,95.6,57.4,95.6h63.1v-191.2H-2806.1z"></path><path class="st11" d="M-1969.3,2790.6c-31.8,0-57.4,42.8-57.4,95.6c0,52.8,25.7,95.6,57.4,95.6h63.1v-191.2H-1969.3z"></path><path class="st11" d="M-2403.9,2790.6c-31.8,0-57.4,42.8-57.4,95.6c0,52.8,25.7,95.6,57.4,95.6h63.1v-191.2H-2403.9z"></path><path class="st8" d="M-2743,2790.6c31.8,0,57.4,42.8,57.4,95.6c0,52.8-25.7,95.6-57.4,95.6s-57.4-42.8-57.4-95.6  C-2800.5,2833.4-2774.8,2790.6-2743,2790.6z"></path><path class="st10" d="M-1798.7,2848.9c3.1-78.9-3.4-118.1-15-188.7c-2.8-10.7-7.4-22.5-16.2-33.7c-26.9-33.8-59.2-65.5-78.4-82.7  c-32.2-28.8-65.6-43.9-110.3-50.1c-107.7-14.8-238.9-18.2-340.9-13.8c-84.7,3.6-157.8,6.7-205.2,33.5  c-43.3,24.6-140.1,105.7-176.2,141.4c-31.8,6.8-71.5,21.9-118.6,73.1c-33.4,36.2-27,105.4-27,137.9c0,45.8,33.4,61.7,73.3,61.7  h951.7C-1814.9,2927.7-1800.7,2897.9-1798.7,2848.9z"></path><path class="st7" d="M-2537.3,2508.2c-62.6,28.9-158.8,115.9-183.3,145.7h364.8c31.8-44.5,92.2-110.9,131.6-145.7H-2537.3z"></path><path class="st7" d="M-2250,2559.5c-34.1,40-64.4,87-77.2,113.2c0,0,285.5-20.3,367.9-29.1c41.3-4.4,49.7-25.6,42.9-46.7  c-11.1-34.5-35.3-73.1-61.4-80.5c-32.6-9.2-122.7-11.1-169.2-7.6C-2178.4,2511.5-2220.2,2524.5-2250,2559.5z"></path><path class="st9" d="M-2492.4,2927.7H-2860c-9.8,0-15.9-6.4-19.7-15.4c-6.1-13.9-18.6-44.2-18.3-58.6c0.3-11.3,5.3-49.4,12-50  c5.5-0.4,65.9,23.1,99,23.1h203.2c29.8,0,121.5-31.7,128.1-20.3c4.6,7.9-19.6,28.2-19.3,47.1c0.3,15.7,2.1,52,2.1,52  C-2471.5,2917.5-2480.5,2927.7-2492.4,2927.7z"></path><path class="st11" d="M-2532.7,2908.7H-2857l16.8-40.3c3.1-7.4,10.2-12.2,18.3-12.2h239.2c6.2,0,12,2.8,15.7,7.7L-2532.7,2908.7z"></path><path class="st9" d="M-2619.7,2751.2h-114.7l-80.3-13.3l-9.6,37.3l74.6,34.8h114.9l92.5-34.8l9.6-37.3L-2619.7,2751.2z"></path><path class="st12" d="M-2814.6,2737.8l-9.6,37.3l-50.3-23.4c-3.1-17.5,6.1-30.1,13.1-38.1c6.1-7,36.2-26.5,57.7-33.4  c0.6,0.7-37.8,21.2-30.6,31.4L-2814.6,2737.8z"></path><path class="st11" d="M-2272.7,2927.7c4.2-14.4,6.5-30.5,6.5-47.7c0-60.8-29.5-110-66-110s-66,49.2-66,110c0,17,2.4,33.2,6.5,47.7  H-2272.7z"></path><path class="st8" d="M-2340.9,2790.6c31.8,0,57.4,42.8,57.4,95.6c0,52.8-25.7,95.6-57.4,95.6s-57.4-42.8-57.4-95.6  C-2398.3,2833.4-2372.6,2790.6-2340.9,2790.6z"></path><path class="st7" d="M-2340.9,2824.1c20.6,0,37.2,27.9,37.2,62.1c0,34.2-16.6,62.1-37.2,62.1s-37.2-27.9-37.2-62.1  C-2378.1,2852-2361.5,2824.1-2340.9,2824.1z"></path><path class="st11" d="M-1857.4,2927.7c5.2,0,19.7-1.9,20.5-4.7c3.4-13.2,5.2-27.7,5.2-43c0-60.8-29.5-110-66.1-110  c-36.5,0-66,49.2-66,110c0,17,2.4,33.2,6.5,47.7H-1857.4z"></path><path class="st8" d="M-1906.2,2790.6c31.8,0,57.4,42.8,57.4,95.6c0,52.8-25.7,95.6-57.4,95.6c-31.8,0-57.4-42.8-57.4-95.6  C-1963.6,2833.4-1937.9,2790.6-1906.2,2790.6z"></path><path class="st7" d="M-1906.2,2824.1c20.6,0,37.3,27.9,37.3,62.1c0,34.2-16.6,62.1-37.3,62.1c-20.6,0-37.3-27.9-37.3-62.1  C-1943.4,2852-1926.8,2824.1-1906.2,2824.1z"></path><path class="st7" d="M-2549.1,2523.4c-55.8,35.1-115.2,82.6-137.3,109.4c0,0,237.3-9.1,317.7-39.3c39.5-15,37.4-47,35.6-70  L-2549.1,2523.4z"></path><path class="st10" d="M-2743.3,2699.2c-1.2,18.4,3.3,44.6-2.1,44.6c-13.1-0.1-68.7-29.2-68.7-37.8s62.2-44.9,79.5-44.9  C-2727.6,2661.1-2741.4,2669.1-2743.3,2699.2z"></path><path class="st12" d="M-2428,2732.4l-114.3,42.8l9.6-37.3l39.9-31.3c11.1-8.7,23.4-14.2,35.6-16l70.8-10.1c6.1-0.9,8.3,6.2,3.9,11.9  l-12.2,15.3C-2403.9,2719-2415.7,2727.8-2428,2732.4z"></path><path class="st7" d="M-2451,2740.9l-91.3,34.2l7.7-29.8l31.9-24.9c8.9-7,18.7-11.4,28.3-12.8l56.5-8.2c4.9-0.7,6.7,4.9,3.1,9.5  l-9.6,12.2C-2431.7,2730.3-2441.2,2737.2-2451,2740.9z"></path><path class="st7" d="M-2816.6,2745.4l-7.7,29.8l-39.5-17.8c-9.6-24.2,10.7-49.4,28.2-58c2.2,2.1-7.7,6.2-1,17.1L-2816.6,2745.4z"></path><path class="st7" d="M-2487.5,2882.9h-65l19.9,25.9h43.9c7,0,12.3-6.1,11.4-12.9l-0.6-4.4  C-2478.4,2886.5-2482.6,2882.9-2487.5,2882.9z"></path><path class="st7" d="M-2846.2,2882.9l-10.8,25.9h-24.3c-3-7-6.8-16.5-10.1-25.9H-2846.2z"></path><path class="st9" d="M-2097.6,2696.8l-38.1,2.5c-3.1,0.1-5.8-2.2-6.1-5.3l-0.1-3.4c-0.1-3.1,2.2-5.8,5.3-6.1l38.1-2.5  c3.1-0.2,5.8,2.2,6.1,5.3l0.1,3.4C-2092.1,2693.8-2094.5,2696.5-2097.6,2696.8z"></path><path class="st9" d="M-1926.7,2682l-38,3.7c-3.1,0.3-5.9-1.9-6.2-5l-0.3-3.4c-0.3-3.1,1.9-5.9,5-6.2l38-3.7c3.1-0.3,5.9,1.9,6.2,5  l0.3,3.4C-1921.2,2678.8-1923.5,2681.7-1926.7,2682z"></path><path class="st9" d="M-1805.1,2715.8h-45.4c-3.3,0-5.6-3.1-4.6-6.2l12.3-39.6c2.1-6.8,8.2-11.7,15.3-12.4l12.5-1.2  c0.4,1.5,0.9,2.8,1.2,4.1C-1810.5,2680.8-1807.5,2698.7-1805.1,2715.8z"></path><path class="st7" d="M-2009.8,2523.4c9.9,0,20.9,4.2,24.6,13.5c5.3,13,9.5,23.4,11.4,36.2c1.6,10.2-5.8,17.5-24.9,17.5  c-50.6,0-106.4-1.9-142-7.9c-11.3-1.9-30.6-8-39-16.3c-6.7-6.4-6.4-20.6-4.6-28.8c1.9-8.7,4.5-14.2,24.9-14.2H-2009.8z"></path><path class="st13" d="M-1906.2,2833c-4,0-7.7,1.2-11.3,3.4c12,7.6,20.6,27,20.6,49.7c0,22.7-8.6,42.1-20.6,49.7  c3.6,2.2,7.3,3.4,11.3,3.4c17.7,0,31.9-23.9,31.9-53.2C-1874.3,2856.9-1888.5,2833-1906.2,2833z"></path><path class="st13" d="M-2340.9,2833c-4,0-7.7,1.2-11.3,3.4c12,7.6,20.6,27,20.6,49.7c0,22.7-8.6,42.1-20.6,49.7  c3.6,2.2,7.3,3.4,11.3,3.4c17.7,0,31.9-23.9,31.9-53.2C-2308.9,2856.9-2323.2,2833-2340.9,2833z"></path><path class="st9" d="M-1892.4,2715.2c-2.8-31.7-9.4-64.5-19.3-97.7c-0.3,0.4-0.7,1-1,1.5c-0.1,0.4-0.3,0.7-0.6,1.2  c-0.3,0.6-0.6,1.3-0.9,1.9c-0.1,0.3-0.1,0.4-0.3,0.4v0.1v0.2c9.2,31.4,15.1,62.4,18,92.6c1.6,18.2-8.2,35.6-24.5,43.4  c-37.4,18.1-51.6,60-57,92c-3,17.2-17.8,29.8-35.5,29.8h-238.2l-2.1-213.3h-4.2l2.1,217.5h242.3c19.6,0,36.2-13.9,39.5-33.2  c5.2-31.1,19-71.7,54.8-89.1C-1901.3,2754.1-1890.6,2735-1892.4,2715.2z"></path><path class="st9" d="M-2084.7,2883.1l-4.2-0.4c11.3-91.3,17.7-152.2,11.4-228.4l4.2-0.3C-2067.1,2730.4-2073.4,2791.6-2084.7,2883.1  z"></path><path class="st14" d="M-2673.1,2755.5c13.8,0,25.1,11.3,25.1,25.1c0,13.8-11.3,25.1-25.1,25.1c-13.8,0-25.1-11.3-25.1-25.1  C-2698.2,2766.7-2686.9,2755.5-2673.1,2755.5z"></path><path class="st8" d="M-2685.6,2805.4c-13.8,0-24.9-11.1-24.9-24.9c0-13.8,11.1-24.9,24.9-24.9c13.8,0,24.9,11.1,24.9,24.9  C-2660.8,2794.3-2671.9,2805.4-2685.6,2805.4z M-2685.6,2759.9c-11.4,0-20.8,9.3-20.8,20.8c0,11.4,9.3,20.7,20.8,20.7  s20.8-9.3,20.8-20.7C-2665,2769.1-2674.2,2759.9-2685.6,2759.9z"></path><path class="st9" d="M-2202.7,2656.9l-73.8,6.1c-6.1,0.4-11.4-4.3-11.4-10.5v-11.4c0-3.6,1.8-6.8,4.8-8.8l28-18.4  c1.8-1.2,3.7-1.8,5.8-1.8h45.9c5.8,0,10.5,4.7,10.5,10.5v23.7C-2193.1,2651.9-2197.2,2656.5-2202.7,2656.9z"></path><path class="st10" d="M-2193,2622.7v8.8c0,5.5-4.2,10.1-9.6,10.5l-73.8,6.1c-5.5,0.4-10.4-3.4-11.3-8.8c0.4-2.8,2.1-5.5,4.6-7  l28-18.4c1.8-1.2,3.7-1.8,5.8-1.8h45.9C-2197.6,2612.1-2193,2616.9-2193,2622.7z"></path><path class="st11" d="M-3054.4,3129.4c-42.9,0-77.8-34.8-77.8-77.7v-468.5c0-4,3.3-7.3,7.3-7.3c4,0,7.3,3.3,7.3,7.3v468.5  c0,34.8,28.3,63.1,63.2,63.1c34.9,0,63.2-28.3,63.2-63.1v-200.9c0-42.8,34.9-77.7,77.8-77.7h241c4,0,7.3,3.3,7.3,7.3  c0,4-3.3,7.3-7.3,7.3h-241.2c-34.9,0-63.2,28.3-63.2,63.1v200.9C-2976.8,3094.6-3011.5,3129.4-3054.4,3129.4z"></path><g>			<linearGradient id="SVGID_1_" gradientUnits="userSpaceOnUse" x1="2703.3796" y1="2166.2822" x2="3533.585" y2="2166.2822" gradientTransform="matrix(1 0 0 -1 0 2367.2231)">		<stop offset="0" style="stop-color:#7EC042"></stop>		<stop offset="1" style="stop-color:#2C99D5"></stop>	</linearGradient>	<path class="st15" d="M157.4,296.6c-7.8,0-14.2-6.4-14.2-14.2V268c-33.5-5.9-58.4-35.4-58.4-69.7v-55l3.1-3.1h19.4v-20.7   c0-7.8,6.3-14.2,14.2-14.2h0.8c7.8,0,14.2,6.4,14.2,14.2v20.7h43.1v-20.7c0-7.8,6.3-14.2,14.2-14.2h0.8c7.8,0,14.2,6.4,14.2,14.2   v20.7h19.1l3.1,3.1v55c0,34.3-24.9,63.8-58.4,69.7v14.4c0,7.8-6.3,14.2-14.2,14.2H157.4L157.4,296.6z M113.7,198.3   c0,23,18.7,41.8,41.7,41.8h4.8c23,0,41.7-18.7,41.7-41.8v-29.1h-88.1L113.7,198.3L113.7,198.3z"></path>			<linearGradient id="SVGID_00000064345398130183860590000016999596453865186695_" gradientUnits="userSpaceOnUse" x1="11.7984" y1="2283.9863" x2="842.0139" y2="2283.9863" gradientTransform="matrix(1 0 0 -1 0 2367.2231)">		<stop offset="0" style="stop-color:#7EC042"></stop>		<stop offset="1" style="stop-color:#2C99D5"></stop>	</linearGradient>	<path style="fill:url(#SVGID_00000064345398130183860590000016999596453865186695_);" d="M299.6,163.1c-7.2,0-13.3-5.7-13.9-13   c-5.1-66.6-61.2-118.8-127.9-118.8S34.9,83.5,29.8,150.1c-0.6,7.3-6.7,13-13.9,13c-3.9,0-7.6-1.6-10.3-4.5c-2.6-2.8-4-6.7-3.7-10.5   C8.1,66.9,76.6,3.4,157.8,3.4c81.2,0,149.6,63.6,155.7,144.7c0.3,3.8-1,7.7-3.7,10.5C307.2,161.5,303.4,163.1,299.6,163.1   L299.6,163.1z"></path>			<linearGradient id="SVGID_00000128469800226918732630000006738777213313563807_" gradientUnits="userSpaceOnUse" x1="9.4789" y1="2219.1406" x2="839.6944" y2="2219.1406" gradientTransform="matrix(1 0 0 -1 0 2367.2231)">		<stop offset="0" style="stop-color:#7EC042"></stop>		<stop offset="1" style="stop-color:#2C99D5"></stop>	</linearGradient>	<path style="fill:url(#SVGID_00000128469800226918732630000006738777213313563807_);" d="M533.2,119.7V96.9c0-3.4,2.7-6.1,6.1-6.1   h12.3V56.6c0-3.4,2.7-6.1,6.1-6.1h25.7c3.4,0,6.1,2.7,6.1,6.1v34.2H618c3.4,0,6.1,2.7,6.1,6.1v22.8c0,3.4-2.7,6.1-6.1,6.1h-28.5   v55.8c0,10.7,2.4,17.9,7.1,21.6c4,3.1,13.4,5,26.2,5.6c4.2,0.2,7.5,3.6,7.6,7.8l0.4,21.2c0.1,4.4-3.5,8.1-7.9,8.1   c-23.3,0-41-4.6-53.1-13.8c-12.1-9.2-18.2-26-18.2-50.3v-55.8h-12.3C535.9,125.8,533.2,123,533.2,119.7L533.2,119.7z"></path>			<linearGradient id="SVGID_00000127045039269339571750000018113219123436722090_" gradientUnits="userSpaceOnUse" x1="11.7984" y1="2199.512" x2="842.0139" y2="2199.512" gradientTransform="matrix(1 0 0 -1 0 2367.2231)">		<stop offset="0" style="stop-color:#7EC042"></stop>		<stop offset="1" style="stop-color:#2C99D5"></stop>	</linearGradient>	<path style="fill:url(#SVGID_00000127045039269339571750000018113219123436722090_);" d="M352.2,167.6c0-22.3,7.9-41.3,23.8-56.9   c15.8-15.6,35.1-23.4,57.8-23.4c22.7,0,42,7.8,57.8,23.4c15.8,15.6,23.8,34.6,23.8,56.9s-8,41.1-23.9,56.9   c-15.9,15.8-35.1,23.7-57.6,23.7c-22.5,0-41.7-7.9-57.6-23.7C360.2,208.7,352.2,189.7,352.2,167.6z M402.1,136.1   c-9,9-13.4,19.4-13.4,31.4c0,12,4.5,22.5,13.4,31.4c9,9,19.5,13.4,31.6,13.4c12.1,0,22.6-4.5,31.6-13.4c9-8.9,13.4-19.4,13.4-31.4   c0-12-4.5-22.5-13.4-31.4c-9-9-19.5-13.4-31.6-13.4C421.6,122.7,411.1,127.2,402.1,136.1z"></path>			<linearGradient id="SVGID_00000113344733095913722630000003625823340994667418_" gradientUnits="userSpaceOnUse" x1="14.1163" y1="2199.512" x2="844.3038" y2="2199.512" gradientTransform="matrix(1 0 0 -1 0 2367.2231)">		<stop offset="0" style="stop-color:#7EC042"></stop>		<stop offset="1" style="stop-color:#2C99D5"></stop>	</linearGradient>	<path style="fill:url(#SVGID_00000113344733095913722630000003625823340994667418_);" d="M650.2,167.6c0-22.3,7.9-41.3,23.8-56.9   c15.8-15.6,35.1-23.4,57.8-23.4c22.7,0,42,7.8,57.8,23.4c15.8,15.6,23.8,34.6,23.8,56.9s-8,41.1-23.9,56.9   c-15.9,15.8-35.1,23.7-57.6,23.7c-22.5,0-41.7-7.9-57.6-23.7C658.2,208.7,650.2,189.7,650.2,167.6z M700.2,136.1   c-9,9-13.4,19.4-13.4,31.4c0,12,4.5,22.5,13.4,31.4c9,9,19.5,13.4,31.6,13.4c12.1,0,22.6-4.5,31.6-13.4c9-8.9,13.4-19.4,13.4-31.4   c0-12-4.5-22.5-13.4-31.4c-9-9-19.5-13.4-31.6-13.4C719.7,122.7,709.1,127.2,700.2,136.1z"></path>			<linearGradient id="SVGID_00000053527219829165743030000013993195575068977303_" gradientUnits="userSpaceOnUse" x1="16.4326" y1="2199.6221" x2="846.6201" y2="2199.6221" gradientTransform="matrix(1 0 0 -1 0 2367.2231)">		<stop offset="0" style="stop-color:#7EC042"></stop>		<stop offset="1" style="stop-color:#2C99D5"></stop>	</linearGradient>	<path style="fill:url(#SVGID_00000053527219829165743030000013993195575068977303_);" d="M821.6,286.5l0.2-17.4   c0.1-4.4,3.1-8.2,7.3-9.4c6.3-1.7,11.8-4.3,14.6-7c3.8-3.7,5.7-10.3,5.7-19.7V94.8c0-2.2,1.8-4,4-4h29.8c2.2,0,4,1.8,4,4v138.3   c0,23.2-5.7,39.6-17,49.3c-9.3,8-22,12.7-38.1,14.1C826.5,297,821.6,292.3,821.6,286.5L821.6,286.5z M849.5,57.7   c0-10.5,8.5-19,18.9-19c10.5,0,18.9,8.5,18.9,19c0,10.5-8.5,19-18.9,19C857.9,76.6,849.5,68.2,849.5,57.7z"></path>			<linearGradient id="SVGID_00000183230229044129617020000000776766359806384034_" gradientUnits="userSpaceOnUse" x1="16.4326" y1="2198.4509" x2="846.6201" y2="2198.4509" gradientTransform="matrix(1 0 0 -1 0 2367.2231)">		<stop offset="0" style="stop-color:#7EC042"></stop>		<stop offset="1" style="stop-color:#2C99D5"></stop>	</linearGradient>	<path style="fill:url(#SVGID_00000183230229044129617020000000776766359806384034_);" d="M917.8,168.6c0-22.1,7.8-40.8,23.5-56.2   C956.9,97,976,89.3,998.4,89.3c23.7,0,43,7.9,58,23.8c15,15.9,22.5,35.2,22.5,57.8c0,2.4-0.2,5.9-0.6,10.3H956.4   c3.2,10,8.7,17.8,16.4,23.3c7.7,5.6,17.2,8.3,28.7,8.3c9.4,0,17.2-1.6,23.6-4.7c4.9-2.4,9.4-6,13.5-10.5c2.2-2.4,5.8-3,8.6-1.5   l19.4,10.8c3.8,2.1,4.8,7.1,2.1,10.6c-16.2,20.5-38.6,30.7-67.2,30.7c-24.1,0-44-7.6-59.9-22.7   C925.8,210.5,917.9,191.5,917.8,168.6L917.8,168.6z M957.3,151.4h81.7c-7.6-18-21.2-27.1-40.6-27.1c-9,0-17.2,2.5-24.6,7.5   C966.4,136.8,960.9,143.3,957.3,151.4L957.3,151.4z"></path>			<linearGradient id="SVGID_00000176042799974091805520000017420117982167194242_" gradientUnits="userSpaceOnUse" x1="16.4326" y1="2219.1406" x2="846.6234" y2="2219.1406" gradientTransform="matrix(1 0 0 -1 0 2367.2231)">		<stop offset="0" style="stop-color:#7EC042"></stop>		<stop offset="1" style="stop-color:#2C99D5"></stop>	</linearGradient>	<path style="fill:url(#SVGID_00000176042799974091805520000017420117982167194242_);" d="M1100.5,119.7V96.9c0-3.4,2.7-6.1,6.1-6.1   h12.3V56.6c0-3.4,2.7-6.1,6.1-6.1h25.7c3.4,0,6.1,2.7,6.1,6.1v34.2h28.5c3.4,0,6.1,2.7,6.1,6.1v22.8c0,3.4-2.7,6.1-6.1,6.1h-28.5   v55.8c0,10.7,2.4,17.9,7.1,21.6c4,3.1,13.4,5,26.2,5.6c4.2,0.2,7.5,3.6,7.6,7.8l0.4,21.2c0.1,4.4-3.5,8.1-7.9,8.1   c-23.3,0-41-4.6-53.1-13.8c-12.1-9.2-18.2-26-18.2-50.3v-55.8h-12.3C1103.2,125.8,1100.5,123,1100.5,119.7L1100.5,119.7z"></path></g></svg>