<?xml version="1.0" encoding="UTF-8"?> <svg xmlns="http://www.w3.org/2000/svg" xmlns:xlink="http://www.w3.org/1999/xlink" viewBox="0 0 91.5 91.5"><defs><filter id="Path_1588" x="0" y="0" filterUnits="userSpaceOnUse"><feOffset dy="3"></feOffset><feGaussianBlur stdDeviation="3" result="blur"></feGaussianBlur><feFlood flood-opacity="0.161"></feFlood><feComposite operator="in" in2="blur"></feComposite><feComposite in="SourceGraphic"></feComposite></filter></defs><g id="EV_Charging_--_Color" data-name="EV Charging -- Color" transform="translate(-370 -1891.125)"><g transform="matrix(1, 0, 0, 1, 370, 1891.13)" filter="url(#Path_1588)"><path id="Path_1588-2" data-name="Path 1588" d="M36.75,0A36.75,36.75,0,1,1,0,36.75,36.75,36.75,0,0,1,36.75,0Z" transform="translate(9 6)" fill="#66bbcd"></path></g><path id="Path_1576" data-name="Path 1576" d="M110.7,302.416a4.125,4.125,0,0,1,4.123,4.123v12.368h1.031a5.669,5.669,0,0,1,5.669,5.669v2.061a1.546,1.546,0,1,0,3.092,0v-7.968A5.151,5.151,0,0,1,121,313.754v-2.061a1.034,1.034,0,0,1,1.031-1.031h1.031V307.57a1.031,1.031,0,0,1,2.061,0v3.092h2.062V307.57a1.031,1.031,0,0,1,2.061,0v3.092h1.031a1.034,1.034,0,0,1,1.031,1.031v2.061a5.152,5.152,0,0,1-3.607,4.915v7.968a4.638,4.638,0,1,1-9.277,0v-2.061A2.576,2.576,0,0,0,115.85,322H114.82v9.276a2.061,2.061,0,0,1,0,4.122H96.267a2.061,2.061,0,0,1,0-4.122V306.539a4.122,4.122,0,0,1,4.122-4.123Zm-3.762,5.4L99.719,314a1.029,1.029,0,0,0,.613,1.81h3.781l-1.61,4.826a1.03,1.03,0,0,0,1.649,1.108l7.215-6.184a1.028,1.028,0,0,0-.67-1.81h-3.723l1.61-4.825a1.033,1.033,0,0,0-1.65-1.111Z" transform="translate(302.992 1614.969)" fill="#fff"></path></g></svg> 